<svg width="65" height="66" viewBox="0 0 65 66" fill="none" xmlns="http://www.w3.org/2000/svg">
<g clip-path="url(#clip0_209_447)">
<path d="M48.75 32.9999L24.375 49.4998V16.4999L48.75 32.9999ZM32.5 0.00608826C14.5748 0.00608826 0.00604248 14.799 0.00604248 32.9999C0.00604248 51.2009 14.5748 65.9938 32.5 65.9938C50.4252 65.9938 64.9939 51.2009 64.9939 32.9999C64.9939 14.799 50.4252 0.00608826 32.5 0.00608826ZM32.5 4.11881C48.2296 4.11881 60.9435 17.0283 60.9435 32.9999C60.9435 48.9715 48.2296 61.881 32.5 61.881C16.7703 61.881 4.05646 48.9715 4.05646 32.9999C4.05646 17.0283 16.7703 4.11881 32.5 4.11881Z" fill="#FFF9F9" fill-opacity="0.8"/>
</g>
<defs>
<clipPath id="clip0_209_447">
<rect width="65" height="66" fill="white"/>
</clipPath>
</defs>
</svg>
